# xmcd
#
# Track frame offsets: 
#        150
#        18020
#        40227
#        57127
#        71812
#        95662
#        111360
#        124740
#        142745
#        160370
#        174992
#
# Disc length: 2556 seconds
#
# Revision: 3
# Processed by: cddbd v1.5.1PL0 Copyright (c) Steve Scherf et al.
# Submitted via: ExactAudioCopy v0.95a5
#
DISCID=8f09fa0b
DTITLE=Lowell Fulson - Them Update Blues
DYEAR=1900
DGENRE=Blues
TTITLE0=What's The Matter Baby
TTITLE1=Think About It
TTITLE2=Don't Lie
TTITLE3=My Secret Love
TTITLE4=Sun Going Down
TTITLE5=Get On Down
TTITLE6=Lonely Man
TTITLE7=Forty-Four
TTITLE8=Too Soon To Tell
TTITLE9=Not A Dime
TTITLE10=L and L Special
EXTD=
EXTT0=
EXTT1=
EXTT2=
EXTT3=
EXTT4=
EXTT5=
EXTT6=
EXTT7=
EXTT8=
EXTT9=
EXTT10=
PLAYORDER=
